<svg xmlns="http://www.w3.org/2000/svg" width="84.323" height="30.617" viewBox="0 0 84.323 30.617"><defs><style>.a{fill:#fff079;font-size:18px;font-family:HiraginoSans-W6, Hiragino Sans;letter-spacing:0.11em;}.b{fill:none;stroke:#fff079;stroke-linecap:round;stroke-linejoin:round;stroke-width:2px;}</style></defs><g transform="translate(1 1)"><text class="a" transform="translate(45.323 22.724)"><tspan x="0" y="0">商家</tspan></text><path class="b" d="M-173.393-94.566h-31.485l-.136,2.837h.021c0,.068-.021.134-.021.2a2.635,2.635,0,0,0,2.635,2.635,2.635,2.635,0,0,0,2.635-2.635c0-.069-.015-.135-.021-.2h.041c0,.068-.021.134-.021.2a2.635,2.635,0,0,0,2.635,2.635,2.635,2.635,0,0,0,2.635-2.635c0-.069-.015-.135-.021-.2h.041c-.006.068-.021.134-.021.2a2.635,2.635,0,0,0,2.635,2.635,2.635,2.635,0,0,0,2.635-2.635c0-.069-.016-.135-.021-.2h.041c-.006.068-.021.134-.021.2a2.635,2.635,0,0,0,2.635,2.635,2.635,2.635,0,0,0,2.635-2.635c0-.069-.016-.135-.021-.2h.04c0,.068-.019.134-.019.2A2.634,2.634,0,0,0-181.3-88.89a2.635,2.635,0,0,0,2.635-2.635c0-.069-.015-.135-.02-.2h.04c0,.068-.021.134-.021.2a2.635,2.635,0,0,0,2.635,2.635,2.635,2.635,0,0,0,2.635-2.635c0-.069-.015-.135-.021-.2h.021Z" transform="translate(206.758 99.965)"/><rect class="b" width="7.302" height="11.457" transform="translate(13.961 17.056)"/><rect class="b" width="4.863" height="4.863" transform="translate(24.333 17.056)"/><rect class="b" width="4.863" height="4.863" transform="translate(6.004 17.026)"/><rect class="b" width="31.661" height="28.513" transform="translate(1.761)"/><line class="b" x2="35.433" transform="translate(0 28.617)"/><line class="b" x2="35.433" transform="translate(0 5.399)"/><line class="b" y1="3.041" transform="translate(7.015 5.399)"/><line class="b" y1="3.041" transform="translate(12.285 5.399)"/><line class="b" y1="3.041" transform="translate(17.555 5.399)"/><line class="b" y1="3.041" transform="translate(22.825 5.399)"/><line class="b" y1="3.041" transform="translate(28.095 5.399)"/></g></svg>