<svg width="40" height="40" viewBox="0 0 40 40" fill="none" xmlns="http://www.w3.org/2000/svg">
<path d="M23.1468 18.7179L12.0513 12.7739V16.1072L19.3473 20L12.0513 23.8928V27.2261L23.1468 21.282C23.3799 21.1655 23.5664 20.979 23.7063 20.7459C23.8461 20.5128 23.9161 20.2564 23.9161 20C23.9161 19.7436 23.8461 19.4639 23.7063 19.2541C23.5897 19.021 23.4032 18.8345 23.1468 18.7179Z" fill="#5AC0B1"/>
<path d="M28.7179 12.9371H25.9207V27.0629H28.7179V12.9371Z" fill="#5AC0B1"/>
<path d="M20 0C8.97436 0 0 8.97436 0 20C0 31.0256 8.97436 40 20 40C31.0256 40 40 31.0256 40 20C40 8.97436 31.0256 0 20 0ZM20 37.2028C10.5128 37.2028 2.7972 29.4872 2.7972 20C2.7972 10.5128 10.5128 2.7972 20 2.7972C29.4872 2.7972 37.2028 10.5128 37.2028 20C37.2028 29.4872 29.4872 37.2028 20 37.2028Z" fill="#5AC0B1"/>
</svg>
